<?xml version="1.0" encoding="UTF-8"?>
<svg id="Layer_2" data-name="Layer 2" xmlns="http://www.w3.org/2000/svg" xmlns:xlink="http://www.w3.org/1999/xlink" viewBox="0 0 1006.47 279.8">
  <defs>
    <style>
      .cls-1 {
        fill: #171d2b;
      }

      .cls-2 {
        fill: url(#linear-gradient-8);
      }

      .cls-3 {
        fill: url(#linear-gradient-7);
      }

      .cls-4 {
        fill: url(#linear-gradient-5);
      }

      .cls-5 {
        fill: url(#linear-gradient-6);
      }

      .cls-6 {
        fill: url(#linear-gradient-4);
      }

      .cls-7 {
        fill: url(#linear-gradient-3);
      }

      .cls-8 {
        fill: url(#linear-gradient-2);
      }

      .cls-9 {
        fill: url(#linear-gradient);
      }

      .cls-10 {
        fill: #50db0f;
      }
    </style>
    <linearGradient id="linear-gradient" x1="366.82" y1="10.85" x2="366.82" y2="73.9" gradientUnits="userSpaceOnUse">
      <stop offset="0" stop-color="#faac22"/>
      <stop offset="1" stop-color="#50db0f"/>
    </linearGradient>
    <linearGradient id="linear-gradient-2" x1="397.07" y1="262.98" x2="397.07" y2="198.45" xlink:href="#linear-gradient"/>
    <linearGradient id="linear-gradient-3" x1="666.14" y1="232.55" x2="671.64" y2="279.3" gradientUnits="userSpaceOnUse">
      <stop offset="0" stop-color="#50db0f"/>
      <stop offset="1" stop-color="#0b5a5f"/>
    </linearGradient>
    <linearGradient id="linear-gradient-4" x1="741.81" y1="223.65" x2="747.31" y2="270.4" xlink:href="#linear-gradient-3"/>
    <linearGradient id="linear-gradient-5" x1="800.15" y1="216.79" x2="805.65" y2="263.54" xlink:href="#linear-gradient-3"/>
    <linearGradient id="linear-gradient-6" x1="850.96" y1="210.81" x2="856.46" y2="257.56" xlink:href="#linear-gradient-3"/>
    <linearGradient id="linear-gradient-7" x1="918.1" y1="202.91" x2="923.6" y2="249.66" xlink:href="#linear-gradient-3"/>
    <linearGradient id="linear-gradient-8" x1="974.25" y1="196.31" x2="979.75" y2="243.05" xlink:href="#linear-gradient-3"/>
  </defs>
  <g id="Layer_1-2" data-name="Layer 1">
    <g>
      <g>
        <g>
          <path class="cls-1" d="M73.29,117.37c-1.04-4.74-2.35-9.06-3.91-12.97-1.56-3.91-3.49-7.29-5.77-10.13-2.28-2.84-4.89-5.03-7.82-6.57-2.93-1.54-6.22-2.31-9.87-2.31-7.56,0-13.42,1.4-17.59,4.18-4.17,2.79-6.25,6.44-6.25,10.94,0,3.2.71,5.82,2.15,7.83,1.43,2.02,3.52,3.83,6.25,5.43,2.74,1.6,6.09,3.08,10.07,4.45,3.97,1.37,8.44,2.94,13.39,4.71,5.6,2.02,10.75,4.04,15.44,6.05,4.69,2.02,8.7,4.45,12.02,7.3s5.89,6.29,7.72,10.32c1.82,4.03,2.74,9.13,2.74,15.3s-1.08,11.21-3.23,15.84c-2.15,4.63-5.21,8.57-9.19,11.84-3.98,3.26-8.73,5.75-14.27,7.47-5.54,1.72-11.63,2.58-18.27,2.58-4.82,0-9.48-.53-13.97-1.6s-8.44-2.96-11.82-5.69c-2.61,1.66-5.31,3.14-8.11,4.44-2.8,1.3-5.7,2.37-8.7,3.2-1.56-4.15-2.67-8.32-3.32-12.53-.65-4.2-.98-8.56-.98-13.06,0-3.08.1-6.1.29-9.06.2-2.96.55-5.98,1.08-9.06h12.7c0,3.91.55,7.88,1.66,11.9,1.11,4.03,2.9,7.73,5.37,11.11,2.47,3.38,5.7,6.13,9.68,8.26,3.97,2.13,8.76,3.2,14.37,3.2,5.08,0,9.35-.5,12.8-1.51,3.45-1.01,6.25-2.4,8.4-4.18,2.15-1.78,3.71-3.82,4.69-6.13.98-2.31,1.47-4.77,1.47-7.37,0-4.15-1.17-7.61-3.52-10.39-2.35-2.78-6.19-5-11.53-6.66-7.95-2.49-15.25-4.94-21.89-7.37-6.65-2.43-12.41-5.33-17.3-8.71-4.89-3.38-8.7-7.37-11.43-11.99-2.74-4.62-4.1-10.31-4.1-17.06,0-5.09,1.08-9.68,3.23-13.77,2.15-4.09,5.05-7.55,8.7-10.39,3.65-2.84,7.92-5,12.8-6.49,4.89-1.48,10.07-2.22,15.54-2.22,4.82,0,9.45.8,13.88,2.4,4.43,1.6,8.14,4.29,11.14,8.08,1.43-2.37,3.52-4.32,6.25-5.86,2.74-1.54,5.47-2.67,8.21-3.38,1.95,5.69,3.16,12.11,3.62,19.28.46,7.17.68,13.95.68,20.34h-13.49Z"/>
          <path class="cls-1" d="M191.93,196.98v-7.46c12.77,0,19.16-3.61,19.16-10.84v-35.89c-1.3-.59-3.1-1.09-5.38-1.51-2.28-.41-4.98-.62-8.11-.62h-23.45c-4.82,0-9.06.71-12.7,2.13v35.89c0,7.23,5.86,10.84,17.59,10.84v7.46h-69.39v-7.46c13.16,0,19.74-3.61,19.74-10.84v-77.65c0-9.36-6.58-14.04-19.74-14.04v-7.82h69.39v7.82c-11.73,0-17.59,4.7-17.59,14.09v29.08c1.95.59,3.91,1.01,5.86,1.25,1.95.24,4.23.36,6.84.36h23.45c6.77,0,11.27-.47,13.49-1.43v-29.26c0-9.4-6.39-14.09-19.16-14.09v-7.82h62.68l6.31,7.82c-11.86,0-17.79,4.68-17.79,14.04v77.65c0,7.23,5.93,10.84,17.79,10.84l-5.03,7.46h-63.96Z"/>
        </g>
        <g id="tiLNYP">
          <g>
            <polygon class="cls-10" points="428.57 208.04 438.58 190.54 471.74 190.59 414.86 91.97 435.09 92.04 502.02 208.07 428.57 208.04"/>
            <polygon class="cls-10" points="292.15 86.13 348.92 184.52 328.85 184.62 261.87 68.58 335.29 68.63 325.36 86.11 292.15 86.13"/>
            <polygon class="cls-10" points="404.53 190.54 394.42 208.07 261.93 208.07 298.67 144.34 308.66 161.86 292.16 190.56 404.53 190.54"/>
            <path class="cls-10" d="M455.16,114.87l16.8-28.7c-.59-.11-112.44-.06-112.44-.06l9.97-17.53h132.52s-36.77,63.65-36.77,63.65l-10.08-17.36Z"/>
            <polygon class="cls-9" points="325.78 132.35 315.67 114.9 381.94 0 417.97 62.53 397.95 62.58 381.9 35.02 325.78 132.35"/>
            <polygon class="cls-8" points="345.94 214.14 365.99 214 381.99 241.66 438.15 144.33 448.21 161.86 381.93 276.64 345.94 214.14"/>
          </g>
        </g>
      </g>
      <g>
        <path class="cls-7" d="M698.38,198.34l4.85,47.13c.43,4.82-.21,9.88-1.91,15.17-2.28,6.69-5.64,10.28-10.08,10.79-6.6.76-13.72-3.51-21.36-12.82-5.53-6.89-11.45-16.61-17.75-29.16-3.74-8.2-7.53-16.39-11.39-24.58-.4,18.85-.23,31.44.49,37.77,1.6,13.97,3.45,21.89,5.55,23.75,2.1,1.86,3.21,3.28,3.32,4.27.24,2.08-.75,4.04-2.97,5.9-2.22,1.86-4.53,2.92-6.93,3.2-3.36.38-6.49-2.52-9.39-8.71-2.26-4.83-3.62-9.32-4.1-13.47-.21-1.85-.47-4.62-.77-8.29-.3-3.67-.55-6.43-.77-8.29-.51-4.48-.67-11.2-.48-20.18.18-8.98.03-15.71-.49-20.18l-2.29-19.98c-.03-.22-.15-.53-.38-.95-.23-.41-.36-.73-.38-.95-.25-2.18,1.17-4.17,4.25-5.96,2.5-1.5,5.08-2.41,7.72-2.71,6.12-.7,10.71.6,13.77,3.9.86,1.12,1.8,3.55,2.84,7.31.66,2.58,1.33,5.21,2,7.9,2.33,7.59,7.54,19.6,15.62,36.04,9.63,19.36,16.26,28.83,19.86,28.42,1.32-.15,1.81-1.76,1.45-4.82-.1-.88-5.2-53.42-5.2-53.42-.4-6.71.11-13.42,1.53-20.12,2.08-9.43,5.76-14.46,11.05-15.06.02,0,.03,0,.05,0,3.17-.33,5.45,3.2,3.91,6-4.96,9.01-2.22,26.73-1.6,32.12Z"/>
        <path class="cls-6" d="M775.5,231.7c-.95,14.14-2.1,24.09-3.45,29.83-.83,3.36-3.48,4.89-7.94,4.59-6.76-.45-9.56-3.72-8.43-9.81-6.21,2.23-12.56,3.12-19.08,2.69-6.27-.42-12.15-2.25-17.62-5.48-6.53-3.85-9.61-8.41-9.26-13.67.35-5.15,4.53-9.72,12.55-13.7,7.26-3.59,13.97-5.17,20.12-4.76l15.38,1.03.26-3.92c.88-11.41-2.47-17.38-10.07-17.89-9.53-.64-14.56,3.06-15.1,11.09-.18,2.71-1.96,3.96-5.34,3.73-2.05-.14-4.13-1.13-6.25-2.98-2.12-1.85-3.11-3.7-2.99-5.57.41-6.14,3.16-11.02,8.25-14.64,5.09-3.62,11.01-5.21,17.76-4.76,22.67,1.52,33.07,16.26,31.2,44.21ZM756.84,236.39c.15-2.19-1.59-3.41-5.21-3.65-15.08-1.01-22.83,1.72-23.26,8.19-.24,3.51,2.96,5.48,9.59,5.93,4.1.28,8.03-.51,11.79-2.35,4.5-2.01,6.86-4.72,7.09-8.11Z"/>
        <path class="cls-4" d="M820.75,194.82c.34,2.95-4.35,5.59-14.06,7.91.04,2.43.55,7.9,1.52,16.42l1.24,10.81c.25,2.18.98,5.36,2.19,9.54,1.21,4.18,1.93,7.3,2.17,9.37.2,1.75-.58,3.41-2.35,5-1.76,1.59-3.61,2.49-5.53,2.71-3,.34-5.79-1.71-8.37-6.17-1.97-3.42-3.15-6.83-3.54-10.21l-3.97-34.71c-5.61-.13-8.85-.26-9.72-.38-3.22-.51-4.93-1.59-5.12-3.23-.05-.43.01-.94.19-1.51,2.66-4.39,5.91-6.81,9.75-7.25.24-.03.6-.07,1.08-.12.49.06.86.07,1.1.04,2.52-.29,3.41-3.1,2.68-8.44l-1.37-11.95c-.74-1.13-1.16-2.13-1.26-3.01-.16-1.42.61-2.81,2.32-4.16,1.71-1.36,3.4-2.13,5.07-2.32,2.5-.29,5,.51,7.5,2.38,2.5,1.87,3.9,4.01,4.17,6.41.3,2.62.15,5.27-.46,7.93-.61,2.67-.7,5.36-.26,8.08l.08.66c9.47-.2,14.45,1.89,14.95,6.25Z"/>
        <path class="cls-5" d="M877.37,185.88c.39,3.38.52,8.52.4,15.43-.12,6.91.02,12.11.42,15.59.35,3.05,1.02,7.58,2.01,13.59.99,6.01,1.66,10.48,1.99,13.42.29,2.5-1.91,4.03-6.59,4.56-4.8.55-8.1-1.17-9.9-5.17-4.25,3.25-8.54,5.12-12.86,5.62-3.48.4-7.55,0-12.18-1.18-4.64-1.18-7.99-2.87-10.07-5.07-4.01-4.19-6.59-11.35-7.75-21.51-.41-3.57-.55-4.04-.56-13.88,0-1.48.6-3.03,1.89-3.77,6.55-3.72,16.1-4.78,15.51,12.45-.12,3.57.64,9.67.64,9.67.3,2.62,1.39,5.26,3.28,7.92,2.29,3.06,4.76,4.43,7.41,4.13,5.16-.59,8.66-4.03,10.5-10.33,1.21-4.34,1.47-9.46.8-15.35l-2.25-19.65c-.18-1.57-1.58-11,.86-12.42,1.37-.79,2.74-1.27,4.13-1.43,2.88-.33,5.59.19,8.12,1.55,2.53,1.37,3.94,3.3,4.22,5.8Z"/>
        <path class="cls-3" d="M939.07,178.01s0,.02,0,.02c.27,2.41-.52,4.86-2.18,6.62-1.57,1.67-3.28,2.61-5.13,2.82-.91.1-1.81.01-2.69-.28-2.11-.69-3.67-2.5-4.3-4.63-1.04-3.49-3.09-5.06-6.16-4.71-2.16.25-4.21,5.74-6.14,16.46-.92,4.75-.91,11.22.03,19.41.89,7.75,1.82,12.4,2.79,13.95,1.13,1.97,1.75,3.34,1.83,4.1.21,1.86-.54,3.46-2.25,4.82-1.71,1.36-3.7,2.17-5.96,2.42-6.42.74-9.95-1.62-10.57-7.08-.06-.54,0-1.33.19-2.34.18-1.02.26-1.74.21-2.18-.64-5.57-1.88-13.8-3.74-24.7-1.86-10.9-3.1-19.08-3.72-24.54-.56-4.91,2.4-7.74,8.88-8.48,3.84-.44,6.6.3,8.28,2.2,2.97-3.77,6.56-5.89,10.77-6.38,2.88-.33,5.72.07,8.53,1.18,1.9.67,4.22,2.31,6.95,4.93,2.73,2.62,4.19,4.75,4.38,6.38Z"/>
        <path class="cls-2" d="M1006.4,211.4c.62,5.46-2.97,10.19-10.79,14.17-6.09,3.13-12.62,5.09-19.58,5.89-18.49,2.12-28.83-6.38-31.02-25.48-.9-7.86.2-16.83,3.3-26.92,3.81-12.38,9.38-18.99,16.71-19.83,6.6-.76,14.02,1.11,22.26,5.58,8.24,4.48,12.69,9.61,13.35,15.39.82,7.2-2.06,13.34-8.66,18.41-5.81,4.54-13.03,7.3-21.68,8.29-1.68.19-4.49-.42-8.42-1.86,1.67,10.32,5.62,15.12,11.87,14.4,5.28-.6,10.32-2.56,15.11-5.88,4.79-3.31,7.91-5.05,9.35-5.22,5.16-.59,7.89.42,8.19,3.04ZM983.22,182.7c-.31-2.73-1.48-5.22-3.5-7.48-2.02-2.26-4.47-3.22-7.36-2.89-3.96.45-6.84,2.39-8.64,5.8-1.49,2.94-2.02,6.26-1.59,9.97.24,2.07,1.21,3.68,2.92,4.81,1.71,1.13,3.77,1.56,6.17,1.28,8.76-1,12.77-4.83,12.01-11.49Z"/>
      </g>
      <g>
        <path class="cls-1" d="M967.09,187.53c.08.68.29.93.71,1.21.35.23.94.54,2.04.54.23,0,.48-.02.74-.04,1.12-1.26,2.06-2.56,2.77-3.89,1.17-2.19,1.76-4.11,1.76-5.77l-4.97-1.37c-.82.52-1.46,1.25-2,2.27-1.01,1.99-1.36,4.33-1.05,7.07Z"/>
        <path class="cls-1" d="M941.07,187.44c-.18.22-.35.44-.55.65-2.4,2.54-5.16,4.01-8.2,4.35-.43.05-.87.07-1.29.07-1.19,0-2.37-.19-3.52-.56-.28-.09-.55-.21-.82-.33,1.29,1.47,2.89,2.78,4.83,3.93,2.09,1.24,4.85,2.13,8.25,2.69.14-3.45.57-7.05,1.29-10.8Z"/>
        <path class="cls-1" d="M853.35,96.94v82.27c0,6.87-5.6,10.31-16.81,10.31v7.46h19l-.46-4.04-.05-.43c-1.05-8.35-.88-14.42,3.37-16.88,1.96-1.14,4-1.83,6.06-2.07.75-.08,1.49-.13,2.23-.13,3.09,0,6.06.76,8.83,2.25,5.03,2.72,6.49,6.74,6.82,9.64.33,2.84.48,6.69.47,11.66h6.17c-1-6.13-1.77-11.24-2.3-15.28-.18-.7-.27-1.46-.28-2.26-.03-.23-.06-.47-.08-.69-.17-1.47-.13-2.78.07-3.95v-32.89c.65-.83,2.21-1.24,4.69-1.24,4.56,0,8.31,1.1,11.24,3.29,2.93,2.19,5.54,5.33,7.82,9.42,1.37,2.46,2.7,5.21,4.01,8.25,1.44-.52,2.94-.87,4.51-1.05.84-.1,1.69-.14,2.53-.14,2.8,0,5.61.54,8.33,1.61,2.58.93,5.41,2.89,8.65,6,3.31,3.17,5.15,5.91,5.73,8.54,1.42-4.39,3.1-8.14,5.03-11.26-1.02-3.5-2.38-7.02-4.09-10.57-1.3-2.6-2.77-4.88-4.4-6.83-1.63-1.95-3.62-3.61-5.96-4.97-2.35-1.36-5.21-2.45-8.6-3.28-3.39-.83-7.43-1.54-12.12-2.13,11.6-1.3,20.78-4.48,27.56-9.52,6.77-5.04,10.16-11.59,10.16-19.65,0-4.27-.68-8.21-2.05-11.83-1.37-3.61-3.59-6.76-6.65-9.43-3.06-2.67-7.01-4.77-11.82-6.32-4.82-1.54-10.62-2.31-17.4-2.31s-11.89.03-16.12.09c-4.24.06-7.98.15-11.24.27-3.26.12-6.39.21-9.38.27-3,.06-6.65.09-10.95.09h-30.69v7.82c12.12,0,18.18,3.32,18.18,9.95ZM886.38,96.98c0-5.83,1.95-8.74,5.86-8.74h3.91c3,0,5.8.33,8.41.98,2.6.66,4.85,1.78,6.74,3.39,1.89,1.6,3.39,3.78,4.5,6.51,1.11,2.74,1.66,6.19,1.66,10.35,0,5.11-.56,9.16-1.66,12.13-1.11,2.98-2.67,5.21-4.69,6.69-2.02,1.49-4.43,2.44-7.23,2.85-2.8.42-5.96.62-9.48.62h-4.89c-1.69,0-2.74-.59-3.13-1.78v-33Z"/>
      </g>
      <g>
        <path class="cls-1" d="M762.11,187.09c4.09,2.17,7.54,5.06,10.32,8.69,3.29-4.53,7.36-7.11,12.15-7.65l.68-.08c.01-.6-.02-1.49-.19-2.74-.27.07-.53.14-.81.21-4.76,1.13-11.11,1.69-19.06,1.69-1.09,0-2.12-.04-3.09-.11Z"/>
        <path class="cls-1" d="M718.49,100.32v78.89c0,6.56-5.36,9.98-16.05,10.28.23,2.71.52,5.07.72,6.67.04.29.07.56.1.82h12.61c1.74-3.41,4.33-6.36,7.78-8.81,5.36-3.82,11.57-5.76,18.44-5.76.84,0,1.7.03,2.56.09,2.72.18,5.28.55,7.7,1.09-1.19-1.29-1.8-2.92-1.8-4.91v-33.23c0-2.84,2.21-4.44,6.65-4.8,3.52.12,6.51.42,8.99.89,2.47.47,4.53,1.36,6.16,2.67,1.63,1.31,2.9,3.2,3.81,5.69.91,2.49,1.56,5.75,1.95,9.77h11.34v-47.44h-11.34c-.39,4.26-1.24,7.64-2.54,10.13-1.3,2.49-2.97,4.35-4.98,5.6-2.02,1.24-4.33,2.04-6.94,2.4-2.61.36-5.47.53-8.6.53s-4.5-1.42-4.5-4.25v-31.14c0-2.12,1.17-3.74,3.52-4.86,2.34-1.12,5.67-1.68,9.97-1.68,4.95,0,9.45.15,13.49.44,4.04.3,7.62,1.24,10.75,2.84,3.13,1.6,5.8,4.15,8.01,7.64,2.21,3.5,3.91,8.5,5.08,15.01l11.92-.89-1.56-34.83h-112.19v7.82c12.64,0,18.96,4.44,18.96,13.33Z"/>
        <path class="cls-1" d="M807.06,163.02c2.52,2.4,4,5.19,4.36,8.32.36,3.17.18,6.41-.55,9.61-.21.92-.34,1.82-.39,2.73,1.97.15,3.95.46,5.81.97l3.64-24.46-11.14-1.42c-.58,1.48-1.16,2.89-1.73,4.25Z"/>
      </g>
      <path class="cls-1" d="M635.54,164.93c.21,0,.43-.02.64-.02,6.03,0,10.87,1.91,14.36,5.69l.16.17.14.19c1.29,1.69,2.43,4.47,3.69,9.01.68,2.64,1.33,5.24,2,7.89.78,2.51,1.9,5.56,3.35,9.12h18.69c-.04-.45-.08-.82-.11-1.08v-.18c-.14-2.09-.17-4.18-.13-6.28-9.73-.59-14.73-4.89-14.97-12.89l-2.35-80.31c0-1.18.2-2.31.59-3.38.39-1.07,1.27-2.04,2.64-2.93,1.37-.89,3.23-1.6,5.57-2.13,2.35-.53,5.47-.8,9.38-.8v-7.82h-46.13l-36.35,86-37.72-86h-48.16l-4.22,7.82c4.69,0,8.34.24,10.95.71,2.6.47,4.53,1.1,5.77,1.87,1.24.77,1.95,1.72,2.15,2.84.2,1.13.29,2.4.29,3.82l-1.56,77.65c-.13,5.33-1.76,9.27-4.89,11.82-3.13,2.55-7.62,3.82-13.49,3.82l4.09,7.46h44.58v-7.46c-12.77,0-19.15-4.74-19.15-14.21l.78-71.25,41.83,92.93h17.59l38.7-93.46,1.29,61.41Z"/>
    </g>
  </g>
</svg>