<?xml version="1.0" encoding="UTF-8"?>
<svg id="Layer_2" data-name="Layer 2" xmlns="http://www.w3.org/2000/svg" viewBox="0 0 1190.09 276.64">
  <defs>
    <style>
      .cls-1 {
        fill: #fff;
      }

      .cls-2 {
        fill: #fbad23;
      }
    </style>
  </defs>
  <g id="Layer_1-2" data-name="Layer 1">
    <g>
      <g>
        <g>
          <path class="cls-1" d="M73.29,117.37c-1.04-4.74-2.35-9.06-3.91-12.97-1.56-3.91-3.49-7.29-5.77-10.13-2.28-2.84-4.89-5.03-7.82-6.57-2.93-1.54-6.22-2.31-9.87-2.31-7.56,0-13.42,1.4-17.59,4.18-4.17,2.79-6.25,6.44-6.25,10.94,0,3.2.71,5.82,2.15,7.83,1.43,2.02,3.52,3.83,6.25,5.43,2.74,1.6,6.09,3.08,10.07,4.45,3.97,1.37,8.44,2.94,13.39,4.71,5.6,2.02,10.75,4.04,15.44,6.05,4.69,2.02,8.7,4.45,12.02,7.3s5.89,6.29,7.72,10.32c1.82,4.03,2.74,9.13,2.74,15.3s-1.08,11.21-3.23,15.84c-2.15,4.63-5.21,8.57-9.19,11.84-3.98,3.26-8.73,5.75-14.27,7.47-5.54,1.72-11.63,2.58-18.27,2.58-4.82,0-9.48-.53-13.97-1.6s-8.44-2.96-11.82-5.69c-2.61,1.66-5.31,3.14-8.11,4.44-2.8,1.3-5.7,2.37-8.7,3.2-1.56-4.15-2.67-8.32-3.32-12.53-.65-4.2-.98-8.56-.98-13.06,0-3.08.1-6.1.29-9.06.2-2.96.55-5.98,1.08-9.06h12.7c0,3.91.55,7.88,1.66,11.9,1.11,4.03,2.9,7.73,5.37,11.11,2.47,3.38,5.7,6.13,9.68,8.26,3.97,2.13,8.76,3.2,14.37,3.2,5.08,0,9.35-.5,12.8-1.51,3.45-1.01,6.25-2.4,8.4-4.18s3.71-3.82,4.69-6.13c.98-2.31,1.47-4.77,1.47-7.37,0-4.15-1.17-7.61-3.52-10.39-2.35-2.78-6.19-5-11.53-6.66-7.95-2.49-15.25-4.94-21.89-7.37-6.65-2.43-12.41-5.33-17.3-8.71s-8.7-7.37-11.43-11.99c-2.74-4.62-4.1-10.31-4.1-17.06,0-5.09,1.08-9.68,3.23-13.77,2.15-4.09,5.05-7.55,8.7-10.39,3.65-2.84,7.92-5,12.8-6.49,4.89-1.48,10.07-2.22,15.54-2.22,4.82,0,9.45.8,13.88,2.4,4.43,1.6,8.14,4.29,11.14,8.08,1.43-2.37,3.52-4.32,6.25-5.86,2.74-1.54,5.47-2.67,8.21-3.38,1.95,5.69,3.16,12.11,3.62,19.28.46,7.17.68,13.95.68,20.34h-13.49Z"/>
          <path class="cls-1" d="M191.93,196.98v-7.46c12.77,0,19.16-3.61,19.16-10.84v-35.89c-1.3-.59-3.1-1.09-5.38-1.51-2.28-.41-4.98-.62-8.11-.62h-23.45c-4.82,0-9.06.71-12.7,2.13v35.89c0,7.23,5.86,10.84,17.59,10.84v7.46h-69.39v-7.46c13.16,0,19.74-3.61,19.74-10.84v-77.65c0-9.36-6.58-14.04-19.74-14.04v-7.82h69.39v7.82c-11.73,0-17.59,4.7-17.59,14.09v29.08c1.95.59,3.91,1.01,5.86,1.25,1.95.24,4.23.36,6.84.36h23.45c6.77,0,11.27-.47,13.49-1.43v-29.26c0-9.4-6.39-14.09-19.16-14.09v-7.82h62.68l6.31,7.82c-11.86,0-17.79,4.68-17.79,14.04v77.65c0,7.23,5.93,10.84,17.79,10.84l-5.03,7.46h-63.96Z"/>
          <path class="cls-1" d="M618.81,196.98v-7.46c11.34,0,17-3.91,17-11.73l-1.56-74.27-38.7,93.46h-17.59l-41.83-92.93-.78,71.25c0,9.48,6.38,14.21,19.15,14.21v7.46h-44.58l-4.09-7.46c5.86,0,10.36-1.27,13.49-3.82,3.13-2.55,4.76-6.49,4.89-11.82l1.56-77.65c0-1.42-.1-2.69-.29-3.82-.2-1.12-.91-2.07-2.15-2.84-1.24-.77-3.16-1.39-5.77-1.87-2.61-.47-6.25-.71-10.95-.71l4.22-7.82h48.16l37.72,86,36.35-86h46.13v7.82c-3.91,0-7.04.27-9.38.8-2.34.53-4.2,1.24-5.57,2.13-1.37.89-2.25,1.87-2.64,2.93s-.59,2.19-.59,3.38l2.35,80.31c.26,8.65,6.06,12.97,17.39,12.97v7.46h-61.96Z"/>
          <path class="cls-1" d="M700.9,196.98v-7.46c11.73,0,17.59-3.43,17.59-10.31v-78.89c0-8.88-6.32-13.33-18.96-13.33v-7.82h112.19l1.56,34.83-11.92.89c-1.17-6.51-2.87-11.52-5.08-15.01-2.22-3.49-4.89-6.04-8.01-7.64-3.13-1.6-6.71-2.55-10.75-2.84-4.04-.29-8.54-.44-13.49-.44-4.3,0-7.62.56-9.97,1.68-2.35,1.12-3.52,2.74-3.52,4.86v31.14c0,2.83,1.5,4.25,4.5,4.25s5.99-.18,8.6-.53c2.61-.36,4.92-1.15,6.94-2.4,2.02-1.24,3.68-3.11,4.98-5.6,1.3-2.49,2.15-5.86,2.54-10.13h11.34v47.44h-11.34c-.39-4.03-1.04-7.29-1.95-9.77-.91-2.49-2.18-4.38-3.81-5.69-1.63-1.3-3.68-2.19-6.16-2.67-2.48-.47-5.47-.77-8.99-.89-4.43.36-6.65,1.95-6.65,4.8v33.23c0,5.69,4.89,8.53,14.66,8.53,7.95,0,14.3-.56,19.06-1.69,4.76-1.12,8.63-2.84,11.63-5.15,3-2.31,5.41-5.24,7.23-8.8,1.82-3.55,3.71-7.82,5.67-12.79l11.14,1.42-5.47,36.78h-113.56Z"/>
          <path class="cls-1" d="M975.12,179.56c0,1.66-.59,3.58-1.76,5.77-1.17,2.19-2.9,4.29-5.18,6.31-2.28,2.02-5.02,3.73-8.21,5.15-3.19,1.42-6.74,2.13-10.65,2.13-8.08,0-14.01-1.13-17.79-3.38-3.78-2.25-6.32-5.09-7.62-8.53-2.74-6.99-5.15-13.33-7.23-19.01-2.09-5.69-4.27-10.57-6.55-14.66-2.28-4.09-4.89-7.22-7.82-9.42-2.93-2.19-6.68-3.29-11.24-3.29-2.48,0-4.04.42-4.69,1.24v37.31c0,6.87,5.8,10.31,17.4,10.31v7.46h-67.24v-7.46c11.2,0,16.81-3.43,16.81-10.31v-82.27c0-6.63-6.06-9.95-18.18-9.95v-7.82h30.69c4.3,0,7.95-.03,10.95-.09,3-.06,6.12-.15,9.38-.27,3.26-.12,7-.21,11.24-.27,4.23-.06,9.61-.09,16.12-.09s12.57.77,17.4,2.31c4.82,1.54,8.76,3.65,11.82,6.32,3.06,2.67,5.28,5.81,6.65,9.43,1.37,3.62,2.05,7.56,2.05,11.83,0,8.06-3.39,14.61-10.16,19.65-6.78,5.04-15.96,8.21-27.56,9.52,4.69.59,8.73,1.3,12.12,2.13,3.39.83,6.25,1.92,8.6,3.28,2.35,1.36,4.33,3.02,5.96,4.97,1.63,1.95,3.09,4.23,4.4,6.83,1.82,3.79,3.26,7.54,4.3,11.27,1.04,3.73,2.12,7.07,3.22,10.03,1.11,2.96,2.35,5.36,3.71,7.19s3.35,2.75,5.96,2.75c2.87,0,5.08-2.72,6.65-8.17l6.45,1.78ZM894.4,131.77c3.52,0,6.68-.21,9.48-.62,2.8-.42,5.21-1.37,7.23-2.85,2.02-1.49,3.58-3.71,4.69-6.69,1.11-2.97,1.66-7.02,1.66-12.13,0-4.16-.56-7.61-1.66-10.35-1.11-2.73-2.61-4.91-4.5-6.51-1.89-1.6-4.14-2.73-6.74-3.39-2.61-.66-5.41-.98-8.4-.98h-3.91c-3.91,0-5.86,2.91-5.86,8.74v33c.39,1.19,1.43,1.78,3.13,1.78h4.89Z"/>
        </g>
        <g>
          <path class="cls-1" d="M993.64,198.6c-4.2,0-6.31-1.81-6.31-5.42s2.1-5.42,6.31-5.42c3.97,0,5.96,1.81,5.96,5.42s-1.99,5.42-5.96,5.42Z"/>
          <path class="cls-1" d="M1045.82,197.5v-3.22c.81-.1,1.66-.21,2.55-.31.89-.1,1.7-.22,2.42-.35.72-.13,1.31-.29,1.77-.47.46-.18.69-.38.69-.59,0-.26-.07-.56-.22-.9-.14-.34-.3-.72-.47-1.14l-3.8-9.58c-.23-.58-.81-.98-1.73-1.22-.92-.24-1.87-.35-2.85-.35h-12.61c-1.84,0-2.97.52-3.37,1.57l-2.76,8.01c-.12.26-.2.55-.26.86-.06.31-.09.66-.09,1.02,0,2.04,2.45,3.06,7.34,3.06v3.61h-20.13v-3.61c3.22-.21,5.62-1.99,7.17-5.34l20.47-44.37,8.03,1.02,20.13,46.02c.23.58.6,1.05,1.12,1.41.52.37,1.11.66,1.77.86.66.21,1.34.38,2.03.51.69.13,1.35.22,1.99.28v3.22h-29.2ZM1038.91,157.05l-6.82,15c-.63,1.26-.95,2.04-.95,2.36,0,.42.89.63,2.68.63h10.63c1.38,0,2.07-.1,2.07-.31,0-.26-.55-1.67-1.64-4.24l-5.96-13.43Z"/>
          <path class="cls-1" d="M1079.08,197.5v-3.3c5.13,0,7.69-1.7,7.69-5.1v-36.13c0-2.72-2.68-4.08-8.03-4.08v-3.46h19.52c2.19,0,4.02-.04,5.49-.12,1.47-.08,3.15-.12,5.05-.12,7.6,0,13.16,1.27,16.67,3.81,3.51,2.54,5.27,6.43,5.27,11.66,0,1.99-.39,3.88-1.17,5.65-.78,1.78-2.06,3.33-3.84,4.63-1.79,1.31-4.09,2.34-6.91,3.1-2.82.76-6.28,1.14-10.37,1.14-1.73,0-3.15-.05-4.28-.16-1.12-.1-2.2-.26-3.24-.47v14.21c0,1.73.72,3.06,2.16,4.01,1.44.94,3.54,1.41,6.31,1.41v3.3h-30.32ZM1100.93,170.56c1.15.26,2.3.45,3.46.55,1.15.11,2.51.16,4.06.16,1.78,0,3.18-.3,4.19-.9,1.01-.6,1.76-1.4,2.25-2.4.49-.99.79-2.16.91-3.49.11-1.33.17-2.71.17-4.12,0-1.94-.17-3.63-.52-5.07-.35-1.44-.96-2.63-1.86-3.57-.89-.94-2.12-1.65-3.67-2.12s-3.51-.71-5.87-.71c-2.07,0-3.11,1.18-3.11,3.53v18.14Z"/>
          <path class="cls-1" d="M1138.43,197.5v-3.3c5.13,0,7.69-1.7,7.69-5.1v-36.13c0-2.72-2.68-4.08-8.03-4.08v-3.46h19.52c2.19,0,4.02-.04,5.49-.12,1.47-.08,3.15-.12,5.05-.12,7.6,0,13.16,1.27,16.67,3.81,3.51,2.54,5.27,6.43,5.27,11.66,0,1.99-.39,3.88-1.17,5.65-.78,1.78-2.06,3.33-3.84,4.63-1.79,1.31-4.09,2.34-6.91,3.1-2.82.76-6.28,1.14-10.37,1.14-1.73,0-3.15-.05-4.28-.16-1.12-.1-2.2-.26-3.24-.47v14.21c0,1.73.72,3.06,2.16,4.01,1.44.94,3.54,1.41,6.31,1.41v3.3h-30.32ZM1160.28,170.56c1.15.26,2.3.45,3.46.55,1.15.11,2.51.16,4.06.16,1.78,0,3.18-.3,4.19-.9,1.01-.6,1.76-1.4,2.25-2.4.49-.99.79-2.16.91-3.49.11-1.33.17-2.71.17-4.12,0-1.94-.17-3.63-.52-5.07-.35-1.44-.96-2.63-1.86-3.57-.89-.94-2.12-1.65-3.67-2.12s-3.51-.71-5.87-.71c-2.07,0-3.11,1.18-3.11,3.53v18.14Z"/>
        </g>
      </g>
      <g id="tiLNYP">
        <g>
          <polygon class="cls-2" points="428.57 208.04 438.58 190.54 471.74 190.59 414.86 91.97 435.09 92.04 502.02 208.07 428.57 208.04"/>
          <polygon class="cls-2" points="292.15 86.13 348.92 184.52 328.85 184.62 261.87 68.58 335.29 68.63 325.36 86.11 292.15 86.13"/>
          <polygon class="cls-2" points="404.53 190.54 394.42 208.07 261.93 208.07 298.67 144.34 308.66 161.86 292.16 190.56 404.53 190.54"/>
          <path class="cls-2" d="M455.16,114.87l16.8-28.7c-.59-.11-112.44-.06-112.44-.06l9.97-17.53h132.52s-36.77,63.65-36.77,63.65l-10.08-17.36Z"/>
          <polygon class="cls-2" points="325.78 132.35 315.67 114.9 381.94 0 417.97 62.53 397.95 62.58 381.9 35.02 325.78 132.35"/>
          <polygon class="cls-2" points="345.94 214.14 365.99 214 381.99 241.66 438.15 144.33 448.21 161.86 381.93 276.64 345.94 214.14"/>
        </g>
      </g>
    </g>
  </g>
</svg>